<?xml version="1.0" encoding="iso-8859-1"?>
<!-- Generator: Adobe Illustrator 18.0.0, SVG Export Plug-In . SVG Version: 6.00 Build 0)  -->
<!DOCTYPE svg PUBLIC "-//W3C//DTD SVG 1.1//EN" "http://www.w3.org/Graphics/SVG/1.1/DTD/svg11.dtd">
<svg version="1.1" id="Capa_1" xmlns="http://www.w3.org/2000/svg" xmlns:xlink="http://www.w3.org/1999/xlink" x="0px" y="0px"
	 viewBox="0 0 60 60" style="enable-background:new 0 0 60 60;" xml:space="preserve">
<g>
	<path d="M55.985,53.293l-6.798-6.798l6.483-3.241l-17.637-6.498l6.498,17.638l3.242-6.484l6.797,6.797
		C54.767,54.902,55.022,55,55.278,55s0.512-0.098,0.707-0.293C56.376,54.316,56.376,53.684,55.985,53.293z M41.409,40.131
		l9.232,3.402l-3.887,1.943l-1.943,3.888L41.409,40.131z"/>
	<path d="M20.722,22h20V12h-20V22z M23.722,14h14v2h-14V14z M23.722,18h14v2h-14V18z"/>
	<path d="M49.722,37.865V0h-36h-10v60h10H43.4L32.972,31.693L49.722,37.865z M11.722,58h-6V2h6V58z M18.722,10h24v14h-24V10z"/>
</g>
<g>
</g>
<g>
</g>
<g>
</g>
<g>
</g>
<g>
</g>
<g>
</g>
<g>
</g>
<g>
</g>
<g>
</g>
<g>
</g>
<g>
</g>
<g>
</g>
<g>
</g>
<g>
</g>
<g>
</g>
</svg>
